# xmcd
#
# Track frame offsets: 
#        150
#        14001
#        30145
#        44802
#        57546
#        69712
#        81185
#        93651
#        108499
#        122164
#        136040
#        149351
#        160660
#        171894
#        185478
#        200092
#        213447
#        226180
#        238318
#        252241
#
# Disc length: 3532 seconds
#
# Revision: 0
# Processed by: cddbd v1.5.1PL0 Copyright (c) Steve Scherf et al.
# Submitted via: ExactAudioCopy v0.95a5
#
DISCID=280dca14
DTITLE=John Lee 'Sonny Boy' Williamson - The Original Sonny Boy
DYEAR=2004
DGENRE=Blues
TTITLE0=Good Morning, School Girl
TTITLE1=Decoration Blues
TTITLE2=Low Down Ways
TTITLE3=Early in the Morning
TTITLE4=She Don't Love Me That Way
TTITLE5=Black Panther Blues
TTITLE6=Check Up on My Baby
TTITLE7=Sloppy Drunk Blues
TTITLE8=Western Union Man
TTITLE9=Win the War Blues
TTITLE10=Stop Breaking Down
TTITLE11=Polly Put Your Kettle On
TTITLE12=Apple Tree Swing
TTITLE13=The Big Boat
TTITLE14=You're an Old Lady
TTITLE15=Hoodoo Hoodoo
TTITLE16=Shake the Boogie
TTITLE17=Rub a Dub
TTITLE18=Wonderful Time
TTITLE19=Sonny Boy's Jump
EXTD=
EXTT0=
EXTT1=
EXTT2=
EXTT3=
EXTT4=
EXTT5=
EXTT6=
EXTT7=
EXTT8=
EXTT9=
EXTT10=
EXTT11=
EXTT12=
EXTT13=
EXTT14=
EXTT15=
EXTT16=
EXTT17=
EXTT18=
EXTT19=
PLAYORDER=
